<?xml version="1.0" encoding="UTF-8" standalone="no"?>
<!DOCTYPE svg PUBLIC "-//W3C//DTD SVG 1.1//EN"
 "http://www.w3.org/Graphics/SVG/1.1/DTD/svg11.dtd">
<!-- Generated by graphviz version 2.22.2 (Wed Feb &#160;6 05:45:30 UTC 2008)
 -->
<!-- Title: G Pages: 1 -->
<svg width="1249pt" height="620pt"
 viewBox="0.00 0.00 1249.00 620.00" xmlns="http://www.w3.org/2000/svg" xmlns:xlink="http://www.w3.org/1999/xlink">
<g id="graph1" class="graph" transform="scale(1 1) rotate(0) translate(4 616)">
<title>G</title>
<polygon fill="white" stroke="white" points="-4,5 -4,-616 1246,-616 1246,5 -4,5"/>
<!-- Node_24719528 -->
<g id="node1" class="node"><title>Node_24719528</title>
<ellipse fill="none" stroke="black" cx="335" cy="-594" rx="42.1744" ry="18"/>
<text text-anchor="middle" x="335" y="-589.8" font-family="Times Roman,serif" font-size="14.00">TObject</text>
</g>
<!-- Node_2486FB88 -->
<g id="node5" class="node"><title>Node_2486FB88</title>
<ellipse fill="none" stroke="black" cx="335" cy="-522" rx="53.9833" ry="18"/>
<text text-anchor="middle" x="335" y="-517.8" font-family="Times Roman,serif" font-size="14.00">TPersistent</text>
</g>
<!-- Node_24719528&#45;&gt;Node_2486FB88 -->
<g id="edge6" class="edge"><title>Node_24719528&#45;&gt;Node_2486FB88</title>
<path fill="none" stroke="black" d="M335,-575.831C335,-568.131 335,-558.974 335,-550.417"/>
<polygon fill="black" stroke="black" points="338.5,-550.413 335,-540.413 331.5,-550.413 338.5,-550.413"/>
</g>
<!-- Node_253EB3F0 -->
<g id="node2" class="node"><title>Node_253EB3F0</title>
<ellipse fill="none" stroke="black" cx="82" cy="-18" rx="81.8306" ry="18"/>
<text text-anchor="middle" x="82" y="-13.8" font-family="Times Roman,serif" font-size="14.00">TForm_parametry</text>
</g>
<!-- Node_24793638 -->
<g id="node3" class="node"><title>Node_24793638</title>
<ellipse fill="none" stroke="black" cx="449" cy="-594" rx="53.9558" ry="18"/>
<text text-anchor="middle" x="449" y="-589.8" font-family="Times Roman,serif" font-size="14.00">TMyString</text>
</g>
<!-- Node_2484B3F0 -->
<g id="node4" class="node"><title>Node_2484B3F0</title>
<ellipse fill="none" stroke="black" cx="335" cy="-378" rx="45.9443" ry="18"/>
<text text-anchor="middle" x="335" y="-373.8" font-family="Times Roman,serif" font-size="14.00">TControl</text>
</g>
<!-- Node_2489AD70 -->
<g id="node17" class="node"><title>Node_2489AD70</title>
<ellipse fill="none" stroke="black" cx="335" cy="-306" rx="63.071" ry="18"/>
<text text-anchor="middle" x="335" y="-301.8" font-family="Times Roman,serif" font-size="14.00">TWinControl</text>
</g>
<!-- Node_2484B3F0&#45;&gt;Node_2489AD70 -->
<g id="edge18" class="edge"><title>Node_2484B3F0&#45;&gt;Node_2489AD70</title>
<path fill="none" stroke="black" d="M335,-359.831C335,-352.131 335,-342.974 335,-334.417"/>
<polygon fill="black" stroke="black" points="338.5,-334.413 335,-324.413 331.5,-334.413 338.5,-334.413"/>
</g>
<!-- Node_2471B710 -->
<g id="node10" class="node"><title>Node_2471B710</title>
<ellipse fill="none" stroke="black" cx="335" cy="-450" rx="62.001" ry="18"/>
<text text-anchor="middle" x="335" y="-445.8" font-family="Times Roman,serif" font-size="14.00">TComponent</text>
</g>
<!-- Node_2486FB88&#45;&gt;Node_2471B710 -->
<g id="edge12" class="edge"><title>Node_2486FB88&#45;&gt;Node_2471B710</title>
<path fill="none" stroke="black" d="M335,-503.831C335,-496.131 335,-486.974 335,-478.417"/>
<polygon fill="black" stroke="black" points="338.5,-478.413 335,-468.413 331.5,-478.413 338.5,-478.413"/>
</g>
<!-- Node_24719C98 -->
<g id="node6" class="node"><title>Node_24719C98</title>
<ellipse fill="none" stroke="black" cx="335" cy="-90" rx="37.8596" ry="18"/>
<text text-anchor="middle" x="335" y="-85.8" font-family="Times Roman,serif" font-size="14.00">TForm</text>
</g>
<!-- Node_24719C98&#45;&gt;Node_253EB3F0 -->
<g id="edge8" class="edge"><title>Node_24719C98&#45;&gt;Node_253EB3F0</title>
<path fill="none" stroke="black" d="M302.184,-80.6611C261.697,-69.1392 192.083,-49.3278 141.956,-35.0626"/>
<polygon fill="black" stroke="black" points="142.781,-31.6585 132.205,-32.2876 140.865,-38.3912 142.781,-31.6585"/>
</g>
<!-- Node_253EAF90 -->
<g id="node11" class="node"><title>Node_253EAF90</title>
<ellipse fill="none" stroke="black" cx="264" cy="-18" rx="81.8441" ry="18"/>
<text text-anchor="middle" x="264" y="-13.8" font-family="Times Roman,serif" font-size="14.00">TForm_dopravnik</text>
</g>
<!-- Node_24719C98&#45;&gt;Node_253EAF90 -->
<g id="edge4" class="edge"><title>Node_24719C98&#45;&gt;Node_253EAF90</title>
<path fill="none" stroke="black" d="M318.889,-73.6621C309.934,-64.5809 298.604,-53.0918 288.567,-42.9131"/>
<polygon fill="black" stroke="black" points="291.053,-40.4491 281.539,-35.7862 286.069,-45.3641 291.053,-40.4491"/>
</g>
<!-- Node_2470B048 -->
<g id="node15" class="node"><title>Node_2470B048</title>
<ellipse fill="none" stroke="black" cx="406" cy="-18" rx="42.1859" ry="18"/>
<text text-anchor="middle" x="406" y="-13.8" font-family="Times Roman,serif" font-size="14.00">TForm1</text>
</g>
<!-- Node_24719C98&#45;&gt;Node_2470B048 -->
<g id="edge22" class="edge"><title>Node_24719C98&#45;&gt;Node_2470B048</title>
<path fill="none" stroke="black" d="M351.111,-73.6621C360.329,-64.3138 372.064,-52.4139 382.315,-42.0185"/>
<polygon fill="black" stroke="black" points="384.931,-44.3508 389.46,-34.7729 379.946,-39.4358 384.931,-44.3508"/>
</g>
<!-- Node_24BB7CE8 -->
<g id="node19" class="node"><title>Node_24BB7CE8</title>
<ellipse fill="none" stroke="black" cx="546" cy="-18" rx="80.2295" ry="18"/>
<text text-anchor="middle" x="546" y="-13.8" font-family="Times Roman,serif" font-size="14.00">TMyMessageBox</text>
</g>
<!-- Node_24719C98&#45;&gt;Node_24BB7CE8 -->
<g id="edge10" class="edge"><title>Node_24719C98&#45;&gt;Node_24BB7CE8</title>
<path fill="none" stroke="black" d="M366.134,-79.3762C399.281,-68.0651 452.357,-49.9538 492.28,-36.3311"/>
<polygon fill="black" stroke="black" points="493.534,-39.6013 501.868,-33.0593 491.273,-32.9764 493.534,-39.6013"/>
</g>
<!-- Node_2481C6B8 -->
<g id="node7" class="node"><title>Node_2481C6B8</title>
<ellipse fill="none" stroke="black" cx="568" cy="-594" rx="46.9758" ry="18"/>
<text text-anchor="middle" x="568" y="-589.8" font-family="Times Roman,serif" font-size="14.00">Cvektory</text>
</g>
<!-- Node_24974688 -->
<g id="node8" class="node"><title>Node_24974688</title>
<ellipse fill="none" stroke="black" cx="335" cy="-234" rx="97.9774" ry="18"/>
<text text-anchor="middle" x="335" y="-229.8" font-family="Times Roman,serif" font-size="14.00">TScrollingWinControl</text>
</g>
<!-- Node_24719CD0 -->
<g id="node12" class="node"><title>Node_24719CD0</title>
<ellipse fill="none" stroke="black" cx="335" cy="-162" rx="67.9082" ry="18"/>
<text text-anchor="middle" x="335" y="-157.8" font-family="Times Roman,serif" font-size="14.00">TCustomForm</text>
</g>
<!-- Node_24974688&#45;&gt;Node_24719CD0 -->
<g id="edge14" class="edge"><title>Node_24974688&#45;&gt;Node_24719CD0</title>
<path fill="none" stroke="black" d="M335,-215.831C335,-208.131 335,-198.974 335,-190.417"/>
<polygon fill="black" stroke="black" points="338.5,-190.413 335,-180.413 331.5,-190.413 338.5,-190.413"/>
</g>
<!-- Node_246A7470 -->
<g id="node9" class="node"><title>Node_246A7470</title>
<ellipse fill="none" stroke="black" cx="677" cy="-594" rx="43.8021" ry="18"/>
<text text-anchor="middle" x="677" y="-589.8" font-family="Times Roman,serif" font-size="14.00">TPointD</text>
</g>
<!-- Node_2471B710&#45;&gt;Node_2484B3F0 -->
<g id="edge2" class="edge"><title>Node_2471B710&#45;&gt;Node_2484B3F0</title>
<path fill="none" stroke="black" d="M335,-431.831C335,-424.131 335,-414.974 335,-406.417"/>
<polygon fill="black" stroke="black" points="338.5,-406.413 335,-396.413 331.5,-406.413 338.5,-406.413"/>
</g>
<!-- Node_24719CD0&#45;&gt;Node_24719C98 -->
<g id="edge20" class="edge"><title>Node_24719CD0&#45;&gt;Node_24719C98</title>
<path fill="none" stroke="black" d="M335,-143.831C335,-136.131 335,-126.974 335,-118.417"/>
<polygon fill="black" stroke="black" points="338.5,-118.413 335,-108.413 331.5,-118.413 338.5,-118.413"/>
</g>
<!-- Node_249D24D0 -->
<g id="node13" class="node"><title>Node_249D24D0</title>
<ellipse fill="none" stroke="black" cx="787" cy="-594" rx="48.0857" ry="18"/>
<text text-anchor="middle" x="787" y="-589.8" font-family="Times Roman,serif" font-size="14.00">Cvykresli</text>
</g>
<!-- Node_24F939F0 -->
<g id="node14" class="node"><title>Node_24F939F0</title>
<ellipse fill="none" stroke="black" cx="939" cy="-594" rx="86.1726" ry="18"/>
<text text-anchor="middle" x="939" y="-589.8" font-family="Times Roman,serif" font-size="14.00">Tknihovna_objektu</text>
</g>
<!-- Node_24808EA0 -->
<g id="node16" class="node"><title>Node_24808EA0</title>
<ellipse fill="none" stroke="black" cx="1103" cy="-594" rx="59.8892" ry="18"/>
<text text-anchor="middle" x="1103" y="-589.8" font-family="Times Roman,serif" font-size="14.00">TMinMax_d</text>
</g>
<!-- Node_2489AD70&#45;&gt;Node_24974688 -->
<g id="edge16" class="edge"><title>Node_2489AD70&#45;&gt;Node_24974688</title>
<path fill="none" stroke="black" d="M335,-287.831C335,-280.131 335,-270.974 335,-262.417"/>
<polygon fill="black" stroke="black" points="338.5,-262.413 335,-252.413 331.5,-262.413 338.5,-262.413"/>
</g>
<!-- Node_D62AB28 -->
<g id="node18" class="node"><title>Node_D62AB28</title>
<ellipse fill="none" stroke="black" cx="1211" cy="-594" rx="29.8173" ry="18"/>
<text text-anchor="middle" x="1211" y="-589.8" font-family="Times Roman,serif" font-size="14.00">Cmy</text>
</g>
</g>
</svg>
